<svg width="69" height="57" viewBox="0 0 69 57" fill="#f7b7c3" xmlns="http://www.w3.org/2000/svg">
<path fill-rule="evenodd" clip-rule="evenodd" d="M68.4326 9.34442C58.1829 14.2429 53.0582 19.9985 53.0582 26.6114C57.4269 27.1013 61.0394 28.8361 63.8959 31.816C66.7524 34.7959 68.1806 38.2452 68.1806 42.164C68.1806 46.3277 66.7944 49.8382 64.0219 52.6956C61.2495 55.5531 57.7629 56.9818 53.5623 56.9818C48.8575 56.9818 44.7829 55.1245 41.3383 51.4098C37.8938 47.6951 36.1715 43.1845 36.1715 37.8778C36.1715 21.9578 45.3289 9.50774 63.6438 0.527222L68.4326 9.34442ZM32.2611 9.34442C21.9274 14.2429 16.7606 19.9985 16.7606 26.6114C21.2134 27.1013 24.8679 28.8361 27.7244 31.816C30.5808 34.7959 32.009 38.2452 32.009 42.164C32.009 46.3277 30.6018 49.8382 27.7874 52.6956C24.9729 55.5531 21.4654 56.9818 17.2647 56.9818C12.56 56.9818 8.50636 55.1245 5.1038 51.4098C1.70125 47.6951 0 43.1845 0 37.8778C0 21.9578 9.11535 9.50774 27.3463 0.527222L32.2611 9.34442Z" fill="#f7b7c3"/>
</svg>
